<?xml version="1.0" encoding="utf-8"?>
<!-- Generator: Adobe Illustrator 25.2.3, SVG Export Plug-In . SVG Version: 6.00 Build 0)  -->
<svg version="1.1" id="Layer_1" xmlns="http://www.w3.org/2000/svg" xmlns:xlink="http://www.w3.org/1999/xlink" x="0px" y="0px"
	 viewBox="0 0 143.3 184.3" style="enable-background:new 0 0 143.3 184.3;" xml:space="preserve">
<style type="text/css">
	.st0{fill:#91D0D4;}
	.st1{fill:#01474A;}
</style>
<g id="Layer_2_1_">
	<g id="Home_Change">
		<polygon class="st0" points="42.3,61.4 71.7,32 101,61.4 133,61.4 71.7,0 46.4,25.2 46.4,5.1 27.3,5.1 27.3,44.4 10.3,61.4 		"/>
		<polygon class="st0" points="10.3,103.5 42.3,103.5 71.7,74.1 101,103.5 133,103.5 71.7,42.1 		"/>
		<path class="st1" d="M33.7,156.4v-11.7H23.5v11.7h-6.1v-25.8h6.1v11.2h10.2v-11.2h6.1v25.8L33.7,156.4z"/>
		<path class="st1" d="M58,157c-8.5,0-13.8-5.3-13.8-13.2c0-8.2,6.4-13.8,14.1-13.8c8.5,0,13.9,5.4,13.9,13.3
			C72.1,151.5,65.7,157,58,157z M65.6,143.8c0-7.3-3.3-11.1-7.6-11.1s-7.3,3.4-7.3,10.5c0,7.3,3.4,11,7.6,11S65.6,150.9,65.6,143.8z
			"/>
		<path class="st1" d="M98.9,156.4l-0.6-22h-0.3l-6.9,21.1h-4.3l-6.4-21.1h-0.3l-0.6,22h-3.1l0.8-25.8h8.2l5.1,17.1h0.3l5.4-17.1
			h8.1l0.7,25.8H98.9z"/>
		<path class="st1" d="M110.7,156.4v-25.8h17.8v4.2c-2-0.8-3.9-1.2-8.4-1.2h-3.4v8.5h8.3v2.8h-8.3v8.7h3.4c4.5,0,6.4-0.4,8.4-1.2
			v4.2L110.7,156.4z"/>
		<path class="st1" d="M32.8,182.3c-2,1.3-4.3,2-6.7,2c-6.3,0-10.5-3.5-10.5-9.6c0-5.8,4.4-10.1,10.5-10.1c2.6-0.1,5.1,0.6,7.3,1.9
			l-1.4,2.8c-1.4-1.6-3.5-2.6-5.7-2.6c-3.4,0-6,2.7-6,7.6c0,5.2,2.6,8,6.4,8c1.8,0,3.6-0.6,5-1.7L32.8,182.3z"/>
		<path class="st1" d="M48.3,183.8v-8.5h-7.3v8.5h-4.4V165h4.4v8.1h7.3V165h4.4v18.8H48.3z"/>
		<path class="st1" d="M68.1,183.8l-1.8-5.2h-6.8l-1.8,5.2h-2.3l6-16.9v-1.3l4.7-1l6.7,19.3H68.1z M63.1,168.8h-0.3l-2.6,7.8h5.4
			L63.1,168.8z"/>
		<path class="st1" d="M87.2,184l-9.5-14.1h-0.2v13.9h-2.2v-18.5l4.3-0.4l9.1,13.6h0.2V165h2.2v18.6L87.2,184z"/>
		<path class="st1" d="M107.2,175.3h4.3v7c-2,1.3-4.3,1.9-6.7,1.9c-6.3,0-10.5-3.5-10.5-9.6c0-5.8,4.4-10.1,10.5-10.1
			c2.5,0,5.1,0.6,7.3,1.9l-1.4,2.8c-1.4-1.7-3.5-2.6-5.7-2.7c-3.4,0-5.9,2.8-5.9,7.7c0,5.3,2.6,8,6.3,8c0.6,0,1.3,0,1.9-0.1
			L107.2,175.3z"/>
		<path class="st1" d="M115.6,183.8V165h13v3c-1.9-0.7-4-1-6.1-0.9H120v6.2h6v2h-6v6.3h2.5c2.1,0.1,4.2-0.2,6.1-0.9v3L115.6,183.8z"
			/>
	</g>
</g>
</svg>
