<?xml version="1.0" encoding="utf-8"?>
<!-- Generator: Adobe Illustrator 25.2.3, SVG Export Plug-In . SVG Version: 6.00 Build 0)  -->
<svg version="1.1" id="Layer_1" xmlns="http://www.w3.org/2000/svg" xmlns:xlink="http://www.w3.org/1999/xlink" x="0px" y="0px"
	 viewBox="0 0 143.3 184.3" style="enable-background:new 0 0 143.3 184.3;" xml:space="preserve">
<style type="text/css">
	.st0{fill:#006367;}
	.st1{fill:#FFFFFF;}
	.st2{fill:#009394;}
</style>
<g>
	<g>
		<path class="st0" d="M25.9,151.3H31c1.2,0,2.9,0,3.7,0.5c0.9,0.5,1.6,1.5,1.6,2.9c0,1.5-0.8,2.6-2.1,3.1v0
			c1.7,0.4,2.7,1.6,2.7,3.4c0,2.1-1.5,4-4.3,4h-6.8V151.3z M27.8,157.3h3.7c2.1,0,3-0.8,3-2.2c0-1.9-1.4-2.2-3-2.2h-3.7V157.3z
			 M27.8,163.7h4.7c1.6,0,2.6-1,2.6-2.5c0-1.8-1.5-2.3-3-2.3h-4.3V163.7z"/>
		<path class="st0" d="M48.1,165.3c-0.3,0.2-0.7,0.3-1.2,0.3c-0.9,0-1.4-0.5-1.4-1.6c-0.9,1.1-2.2,1.6-3.6,1.6
			c-1.8,0-3.4-0.8-3.4-2.8c0-2.3,1.7-2.8,3.4-3.1c1.8-0.4,3.4-0.2,3.4-1.5c0-1.5-1.2-1.7-2.3-1.7c-1.4,0-2.5,0.4-2.5,1.9h-1.7
			c0.1-2.5,2-3.4,4.3-3.4c1.8,0,3.8,0.4,3.8,2.8v5.2c0,0.8,0,1.1,0.5,1.1c0.1,0,0.3,0,0.5-0.1V165.3z M45.4,160.1
			c-0.6,0.5-1.9,0.5-3,0.7c-1.1,0.2-2,0.6-2,1.8c0,1.1,0.9,1.5,2,1.5c2.2,0,3.1-1.4,3.1-2.3V160.1z"/>
		<path class="st0" d="M56.5,158.4c-0.3-1.3-1.1-2-2.5-2c-2.4,0-3.2,1.9-3.2,4c0,1.9,0.8,3.7,3,3.7c1.6,0,2.6-0.9,2.8-2.5h1.7
			c-0.4,2.5-1.9,3.9-4.5,3.9c-3.1,0-4.8-2.2-4.8-5.2c0-3,1.6-5.4,4.8-5.4c2.3,0,4.1,1.1,4.4,3.5H56.5z"/>
		<path class="st0" d="M60.3,151.3h1.7v8.3l4.6-4.4h2.2l-4,3.7l4.3,6.5H67l-3.5-5.3l-1.6,1.5v3.8h-1.7V151.3z"/>
		<path class="st0" d="M79,162.1c-0.5,2.2-2.1,3.5-4.3,3.5c-3.2,0-4.8-2.2-4.9-5.3c0-3,2-5.3,4.8-5.3c3.6,0,4.7,3.4,4.6,5.8h-7.6
			c-0.1,1.8,0.9,3.3,3.2,3.3c1.4,0,2.3-0.7,2.6-2H79z M77.4,159.3c-0.1-1.6-1.3-2.9-2.9-2.9c-1.7,0-2.8,1.3-2.9,2.9H77.4z"/>
		<path class="st0" d="M90,165.3h-1.7v-1.4h0c-0.6,1.1-1.8,1.6-3.2,1.6c-3.1,0-4.7-2.5-4.7-5.3c0-2.9,1.5-5.3,4.6-5.3
			c1,0,2.5,0.4,3.3,1.6h0v-5.2H90V165.3z M85.2,164.1c2.2,0,3.1-1.9,3.1-3.8c0-2-0.9-3.8-3.2-3.8c-2.3,0-3,1.9-3,3.9
			C82.1,162.2,83.1,164.1,85.2,164.1z"/>
		<path class="st0" d="M98,151.3h1.7v5.2h0c0.5-1.1,1.8-1.6,3.2-1.6c3.1,0,4.7,2.5,4.7,5.3c0,2.9-1.5,5.3-4.6,5.3
			c-1,0-2.5-0.4-3.3-1.6h0v1.4H98V151.3z M102.8,156.4c-2.2,0-3.1,1.9-3.1,3.8c0,2,0.9,3.8,3.2,3.8c2.3,0,3-1.9,3-3.9
			C105.9,158.3,104.9,156.4,102.8,156.4z"/>
		<path class="st0" d="M113.6,166.7c-0.8,2-1.5,2.7-2.9,2.7c-0.4,0-0.8,0-1.2-0.2v-1.5c0.3,0.1,0.6,0.2,1,0.2c0.7,0,1.1-0.3,1.4-0.9
			l0.7-1.7l-4-10.1h1.9l3,8.3h0l2.8-8.3h1.8L113.6,166.7z"/>
		<path class="st0" d="M0.1,170.1H2v6h7.4v-6h1.9v14H9.3v-6.4H2v6.4H0.1V170.1z"/>
		<path class="st0" d="M14.3,170.1h2.6l4.4,11.8l4.4-11.8h2.6v14h-1.8v-11.7h0l-4.4,11.7h-1.6l-4.4-11.7h0v11.7h-1.8V170.1z"/>
		<path class="st0" d="M47.3,182.4c-1.1,1.5-2.8,2.1-4.5,2.1c-4.2,0-6.7-3.4-6.7-7.1c0-4.1,2.2-7.6,6.7-7.6c3.1,0,5.5,1.4,6,4.7H47
			c-0.4-2.1-2.1-3.1-4.2-3.1c-3.4,0-4.8,2.9-4.8,5.9c0,2.9,1.7,5.6,4.8,5.6c2.9,0,4.6-2,4.5-4.6h-4.5v-1.6H49v7.4h-1.2L47.3,182.4z"
			/>
		<path class="st0" d="M55.8,173.8c3.2,0,4.9,2.3,4.9,5.3c0,3-1.7,5.3-4.9,5.3c-3.2,0-4.9-2.3-4.9-5.3
			C50.9,176.1,52.6,173.8,55.8,173.8z M55.8,182.9c1.7,0,3.2-1.4,3.2-3.8c0-2.5-1.4-3.8-3.2-3.8c-1.7,0-3.2,1.4-3.2,3.8
			C52.7,181.6,54.1,182.9,55.8,182.9z"/>
		<path class="st0" d="M67.3,184.2h-1.8L61.7,174h1.9l2.8,8.5h0l2.8-8.5H71L67.3,184.2z"/>
		<path class="st0" d="M81.2,180.9c-0.5,2.2-2.1,3.5-4.3,3.5c-3.2,0-4.8-2.2-4.9-5.3c0-3,2-5.3,4.8-5.3c3.6,0,4.7,3.4,4.6,5.8h-7.6
			c-0.1,1.8,0.9,3.3,3.2,3.3c1.4,0,2.3-0.7,2.6-2H81.2z M79.6,178.1c-0.1-1.6-1.3-2.9-2.9-2.9c-1.7,0-2.8,1.3-2.9,2.9H79.6z"/>
		<path class="st0" d="M83,174h1.6v2.1h0c0.8-1.6,1.9-2.4,3.7-2.4v1.8c-2.7,0-3.7,1.5-3.7,4.1v4.5H83V174z"/>
		<path class="st0" d="M90,174h1.6v1.6h0c0.7-1.3,1.8-1.8,3.3-1.8c2.7,0,3.5,1.5,3.5,3.7v6.7h-1.7v-6.9c0-1.2-0.8-2-2.1-2
			c-2,0-3,1.4-3,3.2v5.7H90V174z"/>
		<path class="st0" d="M100.9,174h1.6v1.5h0c0.7-1.1,1.9-1.7,3.3-1.7c1.2,0,2.4,0.5,2.8,1.7c0.7-1.1,1.9-1.7,3.2-1.7
			c2,0,3.4,0.8,3.4,2.9v7.4h-1.7v-6.7c0-1.3-0.3-2.3-2-2.3c-1.6,0-2.7,1-2.7,2.6v6.3h-1.7v-6.7c0-1.3-0.4-2.3-1.9-2.3
			c-2,0-2.7,1.8-2.7,2.6v6.3h-1.7V174z"/>
		<path class="st0" d="M126.3,180.9c-0.5,2.2-2.1,3.5-4.3,3.5c-3.2,0-4.8-2.2-4.9-5.3c0-3,2-5.3,4.8-5.3c3.6,0,4.7,3.4,4.6,5.8h-7.6
			c-0.1,1.8,0.9,3.3,3.2,3.3c1.4,0,2.3-0.7,2.6-2H126.3z M124.7,178.1c-0.1-1.6-1.3-2.9-2.9-2.9c-1.7,0-2.8,1.3-2.9,2.9H124.7z"/>
		<path class="st0" d="M128.2,174h1.6v1.6h0c0.7-1.3,1.8-1.8,3.3-1.8c2.7,0,3.5,1.5,3.5,3.7v6.7h-1.7v-6.9c0-1.2-0.8-2-2.1-2
			c-2,0-3,1.4-3,3.2v5.7h-1.7V174z"/>
		<path class="st0" d="M141.4,174h2v1.5h-2v6.3c0,0.8,0.2,0.9,1.3,0.9h0.8v1.5h-1.3c-1.7,0-2.4-0.4-2.4-2.2v-6.5H138V174h1.7v-3h1.7
			V174z"/>
	</g>
	<g>
		<path class="st1" d="M141.7,71.9c0,38.7-31.3,70-70,70c-38.7,0-70-31.3-70-70c0-38.7,31.3-70,70-70
			C110.4,1.9,141.7,33.2,141.7,71.9"/>
		<path class="st0" d="M71.7,3.6C34,3.6,3.4,34.2,3.4,71.9c0,37.7,30.7,68.3,68.3,68.3c37.7,0,68.3-30.7,68.3-68.3
			C140.1,34.2,109.4,3.6,71.7,3.6 M71.7,143.6c-39.5,0-71.7-32.1-71.7-71.7c0-39.5,32.1-71.7,71.7-71.7c39.5,0,71.7,32.1,71.7,71.7
			C143.4,111.4,111.2,143.6,71.7,143.6"/>
		<g>
			<path class="st0" d="M67.3,27.9h-6.2v3.4l6.2,6.6V27.9z M51.3,56.2v24.3h-1H33.4h-1.7v-2.6V56.2H26l-1.8-4.1l25.2-27l1.8-1.9
				l1.8,1.9l25.2,27l-1.8,4.1h-5.7H51.3z"/>
			<polygon class="st0" points="66.7,80.6 66.7,72 59.7,72 59.7,80.6 54.2,80.6 54.2,59.1 59.7,59.1 59.7,67.2 66.7,67.2 66.7,59.1 
				72.2,59.1 72.2,80.6 			"/>
			<path class="st2" d="M82.8,68c-1.7,0-3.3,1-3.6,2.8h7.3C86.1,69,84.6,68,82.8,68 M91.2,74h-12c0.3,1.9,1.9,3,3.8,3
				c1.3,0,2.1-0.5,2.9-1.5h4.9c-1.4,3.2-4.2,5.6-7.8,5.6c-4.7,0-8.5-3.8-8.5-8.5c0-4.7,3.7-8.6,8.4-8.6c4.9,0,8.5,3.9,8.5,8.8
				C91.3,73.2,91.3,73.6,91.2,74"/>
			<rect x="93.4" y="59.1" class="st2" width="4.8" height="21.4"/>
			<path class="st2" d="M109.4,68.4c-2.3,0-4,1.8-4,4.1c0,2.3,1.7,4.1,4,4.1c2.3,0,4-1.8,4-4.1C113.5,70.3,111.8,68.4,109.4,68.4
				 M110.4,81.1c-1.9,0-3.5-0.6-4.8-2v6.8h-4.8V64.5h4.5v1.8h0h0.1c1.2-1.6,3-2.3,5-2.3c5,0,7.8,4.1,7.8,8.7
				C118.3,77.2,115.1,81.1,110.4,81.1"/>
			<polygon class="st2" points="38.8,94.1 38.8,106.5 34,106.5 34,94.1 31.6,94.1 31.6,90.5 34,90.5 34,85.1 38.8,85.1 38.8,90.5 
				41.1,90.5 41.1,94.1 			"/>
			<path class="st2" d="M50.2,94.4c-2.2,0-3.9,1.9-3.9,4.1c0,2.2,1.6,4.1,3.9,4.1c2.2,0,3.9-1.9,3.9-4.1
				C54.1,96.3,52.4,94.4,50.2,94.4 M50.2,107c-4.9,0-8.7-3.6-8.7-8.5c0-4.9,3.7-8.5,8.7-8.5c4.9,0,8.7,3.6,8.7,8.5
				C58.9,103.4,55.1,107,50.2,107"/>
			<path class="st2" d="M74.6,97.5h-3.2v4.5h3.1c1.6,0,3-0.5,3-2.4C77.6,97.9,76.1,97.5,74.6,97.5 M74,89.6h-2.5v4H74
				c1.4,0,2.6-0.4,2.6-2.1C76.6,89.9,75.4,89.6,74,89.6 M80.5,104.7c-2.2,1.9-4.2,1.9-7,1.9h-6.8V85.1h6.6c2.6,0,5,0,6.9,2.1
				c0.9,1,1.3,2.2,1.3,3.5c0,1.8-0.9,3.4-2.5,4.3c2.3,0.8,3.5,2.5,3.5,5C82.5,101.7,81.8,103.6,80.5,104.7"/>
			<path class="st2" d="M94.5,106.5v-1.7h-0.1c-0.8,1.7-2.4,2.2-4.2,2.2c-1.8,0-3.6-0.6-4.7-2c-1.3-1.6-1.4-3-1.4-4.9v-9.6h4.8v8.9
				c0,1.8,0.4,3.2,2.6,3.2c2,0,2.7-1.4,2.7-3.3v-8.8h4.8v16.1H94.5z"/>
			<polygon class="st2" points="108.9,111.9 103.8,111.9 106.3,105.7 100.4,90.5 105.5,90.5 108.7,99.8 108.7,99.8 111.8,90.5 
				116.9,90.5 			"/>
		</g>
		<path class="st2" d="M71.7,8.6C36.8,8.6,8.4,37,8.4,71.9c0,34.9,28.4,63.4,63.4,63.4c34.9,0,63.4-28.4,63.4-63.4
			C135.1,37,106.7,8.6,71.7,8.6z M71.7,131.9c-33.2,0-60-26.9-60-60.1c0-33.2,26.9-60,60-60c33.2,0,60,26.9,60,60
			C131.8,105.1,104.9,131.9,71.7,131.9z"/>
	</g>
</g>
</svg>
