<?xml version="1.0" encoding="utf-8"?>
<!-- Generator: Adobe Illustrator 25.2.3, SVG Export Plug-In . SVG Version: 6.00 Build 0)  -->
<svg version="1.1" id="Layer_1" xmlns="http://www.w3.org/2000/svg" xmlns:xlink="http://www.w3.org/1999/xlink" x="0px" y="0px"
	 viewBox="0 0 143.3 184.3" style="enable-background:new 0 0 143.3 184.3;" xml:space="preserve">
<style type="text/css">
	.st0{fill:#FDC946;}
	.st1{fill:#01474A;}
</style>
<g id="Layer_2_1_">
	<g id="Early_Bird">
		<path class="st0" d="M114.9,20.3v-1.9c0-17.6-22.3-25-32.9-11.1L67.3,26.7l9.8,5.7c6.7,4.6,10,12.1,9.1,20.6
			c-1.2,10.5-9.5,18.8-20,19.9c-0.8,0.1-1.6,0.1-2.3,0.1c-9.2,0-17.5-5.6-20.9-14.2L19.9,89.3c-1.4,1.9-1,4.7,0.9,6.1
			c0.8,0.6,1.7,0.9,2.6,0.9H75c22.1,0,39.9-17.9,39.9-40V31.9l9.4-5.8L114.9,20.3z M97.4,19.6c-1.9,0-3.5-1.6-3.5-3.5
			s1.6-3.5,3.5-3.5c1.9,0,3.5,1.6,3.5,3.5c0,0,0,0,0,0C100.9,18.1,99.3,19.6,97.4,19.6C97.4,19.6,97.4,19.6,97.4,19.6z"/>
		<path class="st0" d="M46.1,54.7c0.5,1.3,0.8,2,0.8,2.1l0.2,0.5l0,0c3.7,9.2,14.2,13.7,23.5,10c6.2-2.5,10.5-8.1,11.2-14.8
			c0.7-6.8-1.9-12.8-7.2-16.5l-10-5.8L30,10.2c-0.2-0.1-0.5-0.1-0.6,0.2c-0.1,0.1-0.1,0.3,0,0.4C31.9,17.6,44.3,49.7,46.1,54.7z"/>
		<path class="st1" d="M22.1,146.2V123h16v3.7c-1.8-0.7-3.5-1.1-7.5-1.1h-3v7.6H35v2.5h-7.4v7.8h3c4,0,5.7-0.4,7.5-1.1v3.7
			L22.1,146.2z"/>
		<path class="st1" d="M56.2,146.2l-2.2-6.5h-8.4l-2.3,6.5h-2.8l7.4-20.9v-1.5l5.8-1.3l8.3,23.7L56.2,146.2z M50.1,127.7h-0.4
			l-3.3,9.6h6.7L50.1,127.7z"/>
		<path class="st1" d="M78.4,146.2l-5.3-9.6l-2.3-0.1v9.7h-5.5v-23.1l8.9-0.2c6.2-0.1,9.1,2.4,9.1,6.1c0,3-2.1,5.6-5,6.4l6.4,10.8
			H78.4z M70.8,125.5v8.5c0.7,0.1,1.5,0.1,2.2,0.1c2.3,0.2,4.3-1.5,4.5-3.7c0-0.2,0-0.4,0-0.5c0-2.7-1.6-4.4-5-4.4L70.8,125.5z"/>
		<path class="st1" d="M88,146.2V123h5.5v20.5h2.9c4,0,5.7-0.4,7.5-1.1v3.7L88,146.2z"/>
		<path class="st1" d="M108.4,146.2v-9.7l-7.8-13.5h6l5.8,10.3h0.3l5.9-10.3h2.9l-7.7,13.4v9.7L108.4,146.2z"/>
		<path class="st1" d="M22.1,184.1v-29.2l10.4-0.2c8.8-0.1,12,2.5,12,6.9c0,3.7-2.9,6.1-6.7,7.1v0.3c4.8,0.8,7.7,3.3,7.7,7.3
			c0,4.9-3.8,8.2-13.6,8.1L22.1,184.1z M31.5,167.7c3.4,0,5.7-2,5.7-4.7s-2.2-5-6.2-5h-2.1v9.7H31.5z M31.6,181c4,0,6.5-2.1,6.5-5.1
			c0-3.2-3.1-5.2-7.2-5.2h-1.9V181H31.6z"/>
		<path class="st1" d="M50.7,184.1v-29.3h6.9v29.3H50.7z"/>
		<path class="st1" d="M80.9,184.1l-6.7-12.1l-2.9-0.1v12.2h-6.9v-29.3l11.3-0.2c7.9-0.1,11.5,3,11.5,7.7c-0.1,3.8-2.6,7.1-6.3,8.1
			l8.1,13.6L80.9,184.1z M71.2,158v10.7c0.9,0.1,1.9,0.2,2.8,0.2c3.4,0,5.7-2.1,5.7-5.4c0-3.5-2.1-5.5-6.3-5.5L71.2,158z"/>
		<path class="st1" d="M93.1,184.1v-29.2l9.6-0.2c11-0.2,17.6,5.9,17.6,14.5c0,9.1-6.3,15.4-17.7,15.1L93.1,184.1z M102.1,181.1
			c7.3,0,10.7-4.5,10.7-11.4c0-7.2-3.6-11.7-11.3-11.7h-1.6V181L102.1,181.1z"/>
	</g>
</g>
</svg>
