<?xml version="1.0" encoding="utf-8"?>
<!-- Generator: Adobe Illustrator 25.2.3, SVG Export Plug-In . SVG Version: 6.00 Build 0)  -->
<svg version="1.1" id="Layer_1" xmlns="http://www.w3.org/2000/svg" xmlns:xlink="http://www.w3.org/1999/xlink" x="0px" y="0px"
	 viewBox="0 0 143.3 184.3" style="enable-background:new 0 0 143.3 184.3;" xml:space="preserve">
<style type="text/css">
	.st0{fill:#EF795F;}
	.st1{fill:#01474A;}
</style>
<g id="Layer_2_1_">
	<g id="Part_Exchange">
		<polygon class="st0" points="98.6,33 98.6,78.8 52.8,78.8 27.9,103.8 123.5,103.8 123.5,8.1 		"/>
		<polygon class="st0" points="90.5,24.9 115.5,0 19.8,0 19.8,95.7 44.7,70.7 44.7,24.9 		"/>
		<path class="st1" d="M20,162.4v-28.7l10.3-0.2c7.9-0.1,12,3.5,12,8.6c0,6.3-6,9.9-12.6,9.9c-0.9,0-2.2-0.1-3-0.2v10.7H20z
			 M26.8,136.6v12c0.9,0.2,1.9,0.2,2.8,0.2c3.3,0,5.5-2.4,5.5-6c0-3.8-2.1-6.2-6-6.2H26.8z"/>
		<path class="st1" d="M61,162.4l-2.8-8.1H47.8l-2.8,8.1h-3.6l9.2-26v-1.9l7.2-1.6l10.3,29.5L61,162.4z M53.4,139.4h-0.5l-4.1,11.9
			h8.3L53.4,139.4z"/>
		<path class="st1" d="M88.5,162.4l-6.6-11.9l-2.9-0.1v12h-6.8v-28.7l11.1-0.2c7.7-0.1,11.3,2.9,11.3,7.6c-0.1,3.7-2.6,7-6.2,7.9
			l7.9,13.4L88.5,162.4z M79,136.6v10.5c0.9,0.1,1.8,0.2,2.8,0.2c3.4,0,5.6-2.1,5.6-5.3c0-3.4-2-5.4-6.2-5.4H79z"/>
		<path class="st1" d="M107,162.4v-25.6c-4.8,0.1-6.9,0.6-9.2,1.5v-4.7h25.2v4.7c-2.3-0.9-4.5-1.3-9.2-1.5v25.6L107,162.4z"/>
		<path class="st1" d="M20,183.9V171h9v2.1c-1.3-0.5-2.8-0.7-4.2-0.6H23v4.3h4.2v1.4H23v4.4h1.7c1.4,0.1,2.9-0.1,4.2-0.6v2.1
			L20,183.9z"/>
		<path class="st1" d="M39.2,183.9l-3.2-5l-3.8,5h-1.9l4.8-6.1l-4.6-6.9H34l3,4.7l3.7-4.7h1.9l-4.6,5.9l4.8,7.1L39.2,183.9z"/>
		<path class="st1" d="M55.1,182.9c-1.4,0.9-3,1.4-4.6,1.4c-4.3,0-7.3-2.4-7.3-6.6c-0.1-3.8,3-6.9,6.8-6.9c0.2,0,0.3,0,0.5,0
			c1.8,0,3.5,0.4,5,1.3l-1,1.9c-1-1.1-2.4-1.8-3.9-1.8c-2.3,0-4.1,1.8-4.1,5.2c0,3.6,1.8,5.5,4.4,5.5c1.3,0,2.5-0.4,3.5-1.2
			L55.1,182.9z"/>
		<path class="st1" d="M65.8,183.9v-5.9h-5.1v5.9h-3V171h3v5.6h5.1V171h3v12.9L65.8,183.9z"/>
		<path class="st1" d="M79.4,183.9l-1.2-3.7h-4.6l-1.3,3.6h-1.7l4.2-11.7v-0.9l3.2-0.7l4.6,13.3L79.4,183.9z M76,173.6h-0.2
			l-1.8,5.3h3.7L76,173.6z"/>
		<path class="st1" d="M92.6,184.1l-6.5-9.7h-0.1v9.6h-1.4v-12.8l3-0.3l6.3,9.4h0.1V171h1.5v12.8L92.6,184.1z"/>
		<path class="st1" d="M106.4,178.1h3v4.8c-1.4,0.9-3,1.3-4.6,1.3c-4.3,0-7.3-2.4-7.3-6.6c-0.1-3.8,3-6.9,6.8-6.9c0.2,0,0.3,0,0.5,0
			c1.8,0,3.5,0.4,5,1.3l-0.9,1.9c-1-1.1-2.4-1.8-3.9-1.8c-2.3,0-4.1,1.9-4.1,5.3c0,3.6,1.8,5.5,4.3,5.5c0.4,0,0.9,0,1.3-0.1V178.1z"
			/>
		<path class="st1" d="M112.2,183.9V171h8.9v2.1c-1.3-0.5-2.8-0.7-4.2-0.6h-1.8v4.3h4.2v1.4h-4.2v4.4h1.7c1.4,0.1,2.9-0.1,4.2-0.6
			v2.1L112.2,183.9z"/>
	</g>
</g>
</svg>
