<?xml version="1.0" encoding="utf-8"?>
<!-- Generator: Adobe Illustrator 25.2.3, SVG Export Plug-In . SVG Version: 6.00 Build 0)  -->
<svg version="1.1" id="Layer_1" xmlns="http://www.w3.org/2000/svg" xmlns:xlink="http://www.w3.org/1999/xlink" x="0px" y="0px"
	 viewBox="0 0 267.8 90" style="enable-background:new 0 0 267.8 90;" xml:space="preserve">
<style type="text/css">
	.st0{fill:#037A61;}
	.st1{fill:#014749;}
</style>
<g id="Layer_2_2_">
	<g id="Building_Futures">
		<path class="st0" d="M65.4,26.8L36.6,6.4c-1.7-1.2-4-1.2-5.8,0L2.1,26.8c-1.3,0.9-2.1,2.4-2.1,4v44c0,2.8,2.2,5,5,5h13.1
			c2-3.3,5.1-11,0-21.7c-3.4-7.1-7.6-15.3-11.1-22c-0.3-0.7-0.1-1.5,0.6-1.8c0.6-0.3,1.2-0.1,1.6,0.3c5.7,7,12.3,15.2,14.1,17.5
			c3.3,4.2,9.6,10.2,19.8,5.3c5-2.3,11.5-5.9,17-9c0.7-0.4,1.5-0.1,1.8,0.5c0.3,0.5,0.2,1.2-0.3,1.6L30,79.8h32.4c2.8,0,5-2.2,5-5
			v-44C67.4,29.2,66.7,27.8,65.4,26.8z M35.4,55c-4.7,0-8.6-3.8-8.5-8.6s3.8-8.6,8.6-8.5c4.7,0,8.6,3.8,8.5,8.6
			C44,51.2,40.2,55,35.4,55C35.4,55,35.4,55,35.4,55z"/>
		<path class="st1" d="M93.1,46.4V21l9-0.2c7.6-0.1,10.4,2.2,10.4,6c0,3.2-2.5,5.3-5.8,6.1v0.2c4.2,0.7,6.7,2.9,6.7,6.3
			c0,4.3-3.3,7.2-11.9,7L93.1,46.4z M101.3,32.1c3,0,5-1.7,5-4.1s-1.9-4.3-5.4-4.3h-1.8v8.4H101.3z M101.4,43.7
			c3.5,0,5.6-1.8,5.6-4.4c0-2.8-2.7-4.5-6.3-4.5h-1.6v9L101.4,43.7z"/>
		<path class="st1" d="M136.1,21h2.9v16.3c0,6.3-4.4,9.8-10.6,9.8S118,43.7,118,37.1V21h6v15.2c0,4.8,2.1,7.5,6.1,7.5
			c4,0,6.1-2.9,6.1-7.2L136.1,21z"/>
		<path class="st1" d="M144.8,46.4V21h6v25.5H144.8z"/>
		<path class="st1" d="M156.7,46.4V21h6v22.6h3.2c4.4,0,6.3-0.4,8.3-1.2v4.1L156.7,46.4z"/>
		<path class="st1" d="M178.1,46.4V21l8.4-0.2c9.5-0.2,15.3,5.1,15.3,12.6c0,7.9-5.5,13.3-15.4,13.1L178.1,46.4z M186,43.7
			c6.4,0,9.3-3.9,9.3-9.9c0-6.3-3.1-10.2-9.9-10.2h-1.4v20.1H186z"/>
		<path class="st1" d="M206.2,46.4V21h6v25.5H206.2z"/>
		<path class="st1" d="M234,46.7l-12.9-19.1h-0.2v18.9h-3V21.3l5.8-0.5l12.4,18.4h0.2V21h2.9v25.2L234,46.7z"/>
		<path class="st1" d="M261.1,34.9h5.9v9.6c-2.7,1.7-5.8,2.6-9,2.6c-8.5,0-14.3-4.7-14.3-13c0-7.9,6-13.6,14.3-13.6
			c3.5,0,6.9,0.8,9.9,2.5l-1.9,3.8c-1.9-2.2-4.8-3.6-7.7-3.6c-4.6,0-8.1,3.8-8.1,10.4c0,7.2,3.5,10.9,8.5,10.9c0.9,0,1.7,0,2.6-0.2
			L261.1,34.9z"/>
		<path class="st1" d="M93.1,79.7V54.2h17.5v4.1c-2-0.8-3.9-1.2-8.3-1.2h-3.2v8.4h8.2v2.8h-8.2v11.4H93.1z"/>
		<path class="st1" d="M133.1,54.2h2.9v16.3c0,6.3-4.4,9.8-10.6,9.8s-10.6-3.3-10.6-9.9V54.2h6v15.2c0,4.8,2.1,7.5,6.1,7.5
			c4,0,6.1-2.9,6.1-7.2L133.1,54.2z"/>
		<path class="st1" d="M148.1,79.7V57.1c-4.3,0.1-6.1,0.5-8.2,1.3v-4.2h22.3v4.2c-2-0.8-4-1.2-8.1-1.3v22.6H148.1z"/>
		<path class="st1" d="M184.3,54.2h2.9v16.3c0,6.3-4.4,9.8-10.6,9.8s-10.6-3.3-10.6-9.9V54.2h6v15.2c0,4.8,2.1,7.5,6.1,7.5
			s6.1-2.9,6.1-7.2L184.3,54.2z"/>
		<path class="st1" d="M207.4,79.7l-5.9-10.5L199,69v10.6h-6V54.3l9.8-0.2c6.8-0.1,10,2.6,10,6.7c-0.1,3.3-2.3,6.1-5.5,7l7,11.9
			L207.4,79.7z M199,56.9v9.3c0.8,0.1,1.6,0.2,2.4,0.2c3,0,5-1.8,5-4.7c0-3-1.8-4.8-5.4-4.8H199z"/>
		<path class="st1" d="M218,79.7V54.2h17.6v4.1c-2-0.8-3.9-1.2-8.3-1.2H224v8.4h8.2v2.7H224v8.6h3.3c4.4,0,6.3-0.4,8.3-1.2v4.1
			L218,79.7z"/>
		<path class="st1" d="M240.2,74.4c2.6,2.4,4.8,3.2,7.3,3.2c3.7,0,5.3-1.8,5.3-3.8c0-2.3-1.8-3.3-6.1-4.6c-5.1-1.5-8-3.5-8-7.7
			s3.4-7.9,9.8-7.9c2.9,0,5.7,0.6,8.4,1.6l-1.3,4l-1-0.8c-1.8-1.5-4.1-2.3-6.4-2.2c-2.9,0-4.6,1.5-4.6,3.3c0,2.2,1.8,3.1,5.5,4.2
			c6,1.8,8.8,3.9,8.8,8.2c0,4.5-3.7,8.3-10.7,8.3c-2.9-0.1-5.8-0.7-8.4-1.9L240.2,74.4z"/>
	</g>
</g>
</svg>
