<svg xmlns="http://www.w3.org/2000/svg" viewBox="0 0 327.76 89.98"><defs><style>.cls-1{fill:#037a61;}.cls-2{fill:#014749;}</style></defs><g id="Layer_2" data-name="Layer 2"><g id="Community_Champions" data-name="Community Champions"><path class="cls-1" d="M62,17.94a4.76,4.76,0,0,0-4.76,4.76V40.53a1.7,1.7,0,0,1-3.4,0V12.47a4.76,4.76,0,0,0-9.51,0V40.53a1.7,1.7,0,1,1-3.39,0V4.76a4.76,4.76,0,0,0-9.52,0V40.53a1.7,1.7,0,1,1-3.39,0V16.67a4.76,4.76,0,1,0-9.52,0L18.72,46A1.69,1.69,0,0,1,17,47.71a1.6,1.6,0,0,1-1.41-.78L8.82,38.44a4.72,4.72,0,0,0-4.06-2.28,4.81,4.81,0,0,0-2.48.7A4.75,4.75,0,0,0,.69,43.38c.51.7,12.69,17.25,14.31,19.75,1.39,2.15,1.87,6.63,2.56,12.35C18.92,86.65,30.55,90,40,90h2.39c.73,0,1.45,0,2.17-.12A8.27,8.27,0,0,1,42.18,88c-2.13-2.48-3.77-4.45-5.1-5-1.55-.67-12.5-4.65-13-4.81a2.7,2.7,0,0,1,2.28-4.9l5.88,1.88a.93.93,0,0,0,.91-.08,1,1,0,0,0,.27-1.34L24.12,59.91a2.7,2.7,0,1,1,4.49-3l7.51,11.25a1,1,0,0,0,1.33.27,1,1,0,0,0,.27-1.34L26.46,50.23a2.7,2.7,0,0,1,4.49-3L42.21,64.11a1,1,0,0,0,1.33.27A1,1,0,0,0,43.81,63L35,49.81a2.7,2.7,0,0,1,4.49-3L48.3,60.05a1,1,0,0,0,1.33.26A1,1,0,0,0,49.9,59l-5.61-8.41a2.7,2.7,0,1,1,4.48-3L62.44,68.06a13.12,13.12,0,0,1,2.21,7.71,23.1,23.1,0,0,0,2.11-9.64V22.7A4.76,4.76,0,0,0,62,17.94Z"/><path class="cls-2" d="M115.67,44.35a15.21,15.21,0,0,1-9,2.69c-8.56,0-14.3-4.72-14.3-13,0-7.91,6-13.65,14.26-13.65a18.66,18.66,0,0,1,9.86,2.57l-1.88,3.74a10.46,10.46,0,0,0-7.65-3.58c-4.65,0-8.15,3.62-8.15,10.31,0,7.17,3.46,10.87,8.67,10.87a10.29,10.29,0,0,0,6.81-2.36Z"/><path class="cls-2" d="M132.05,47C123.7,47,118.4,41.79,118.4,34c0-8.07,6.32-13.61,13.9-13.61,8.39,0,13.68,5.29,13.68,13.16C146,41.58,139.63,47,132.05,47Zm7.5-13c0-7.26-3.3-10.92-7.5-10.92s-7.21,3.34-7.21,10.39c0,7.25,3.34,10.87,7.5,10.87S139.55,41.05,139.55,34Z"/><path class="cls-2" d="M172.42,46.43l-.57-21.67h-.28l-6.81,20.82h-4.27l-6.32-20.82h-.28l-.61,21.67h-3.06L151,21h8l5,16.87h.29L169.65,21h8l.73,25.46Z"/><path class="cls-2" d="M206.07,46.43l-.57-21.67h-.28l-6.81,20.82h-4.27l-6.32-20.82h-.28l-.61,21.67h-3.06L184.64,21h8l5,16.87H198L203.3,21h8l.73,25.46Z"/><path class="cls-2" d="M235.77,21h2.94v16.3c0,6.31-4.4,9.77-10.56,9.77s-10.55-3.34-10.55-9.9V21h6V36.12c0,4.81,2.12,7.46,6.11,7.46s6.07-2.85,6.07-7.21Z"/><path class="cls-2" d="M260.42,46.68,247.54,27.57h-.24V46.43h-3V21.3l5.82-.53,12.39,18.37h.24V21h2.93V46.15Z"/><path class="cls-2" d="M271.58,46.43V21h6V46.43Z"/><path class="cls-2" d="M288.94,46.43V23.82c-4.28.12-6.08.49-8.19,1.3V21H303v4.15c-2-.81-4-1.18-8.11-1.3V46.43Z"/><path class="cls-2" d="M313.3,46.43V35.76L304.74,21h6.56l6.4,11.37h.36L324.54,21h3.22l-8.47,14.75V46.43Z"/><path class="cls-2" d="M115.67,77.61a15.21,15.21,0,0,1-9,2.69c-8.56,0-14.3-4.72-14.3-13,0-7.91,6-13.65,14.26-13.65a18.66,18.66,0,0,1,9.86,2.57l-1.88,3.74a10.46,10.46,0,0,0-7.65-3.58c-4.65,0-8.15,3.62-8.15,10.31,0,7.17,3.46,10.87,8.67,10.87a10.29,10.29,0,0,0,6.81-2.36Z"/><path class="cls-2" d="M136.69,79.69V68.16h-10V79.69h-6V54.23h6v11h10v-11h6V79.69Z"/><path class="cls-2" d="M163.54,79.69l-2.44-7.17h-9.21l-2.49,7.17h-3.13l8.19-23V55l6.35-1.42,9.13,26.11Zm-6.72-20.33h-.41l-3.58,10.51h7.37Z"/><path class="cls-2" d="M195.56,79.69,195,58h-.28L187.9,78.84h-4.27L177.31,58H177l-.62,21.67h-3l.77-25.46h8l5,16.87h.29l5.33-16.87h8l.73,25.46Z"/><path class="cls-2" d="M207.17,79.69V54.27l9.13-.16c7-.13,10.63,3.09,10.63,7.58,0,5.58-5.34,8.71-11.12,8.71-.77,0-1.92-.08-2.65-.16v9.45Zm6-22.77V67.51a16,16,0,0,0,2.49.2c2.89,0,4.84-2.11,4.84-5.29,0-3.34-1.87-5.5-5.33-5.5Z"/><path class="cls-2" d="M230,79.69V54.23h6V79.69Z"/><path class="cls-2" d="M254.06,80.3c-8.35,0-13.65-5.25-13.65-13.07,0-8.07,6.32-13.61,13.9-13.61,8.39,0,13.69,5.29,13.69,13.16C268,74.84,261.64,80.3,254.06,80.3Zm7.5-13c0-7.26-3.3-10.92-7.5-10.92s-7.21,3.34-7.21,10.39c0,7.25,3.34,10.87,7.5,10.87S261.56,74.31,261.56,67.27Z"/><path class="cls-2" d="M288.32,79.94,275.45,60.83h-.24V79.69h-3V54.56l5.83-.53L290.44,72.4h.25V54.23h2.93V79.41Z"/><path class="cls-2" d="M300.06,74.44c2.64,2.36,4.76,3.22,7.29,3.22,3.66,0,5.25-1.84,5.25-3.79,0-2.33-1.79-3.34-6.07-4.65-5.13-1.55-8-3.5-8-7.7s3.38-7.9,9.82-7.9a23.06,23.06,0,0,1,8.39,1.63l-1.35,4-1-.77a10,10,0,0,0-6.4-2.24c-2.85,0-4.56,1.5-4.56,3.34,0,2.16,1.79,3.09,5.54,4.23,6,1.8,8.76,3.87,8.76,8.19,0,4.48-3.71,8.31-10.68,8.31a21.31,21.31,0,0,1-8.39-1.91Z"/></g></g></svg>